<svg width="82" height="55" viewBox="0 0 82 55" fill="none" xmlns="http://www.w3.org/2000/svg">
<path d="M15.104 46.2569C15.104 45.1582 14.8373 44.131 14.3052 43.1778C13.7743 42.2259 13.0457 41.4693 12.1219 40.9104C11.1955 40.3514 10.1734 40.072 9.05433 40.072C7.91737 40.072 6.88382 40.3426 5.94842 40.8823C5.01313 41.4233 4.27558 42.166 3.73576 43.1102C3.19475 44.0533 2.92418 45.1124 2.92418 46.2837C2.92418 47.4207 3.18961 48.4569 3.72298 49.391C4.25254 50.3262 4.99128 51.0587 5.93564 51.5908C6.87988 52.1229 7.92884 52.3883 9.08358 52.3883C10.1822 52.3883 11.1903 52.1127 12.1052 51.5628C13.0227 51.0128 13.7526 50.2714 14.291 49.3361C14.8334 48.4019 15.104 47.3747 15.104 46.2569ZM14.938 51.1236C14.3165 52.0577 13.491 52.7914 12.4638 53.3223C11.4365 53.8544 10.311 54.1198 9.08358 54.1198C7.59833 54.1198 6.23678 53.7714 5.00024 53.076C3.76251 52.3793 2.78758 51.4299 2.07176 50.2304C1.35857 49.0298 1 47.6873 1 46.2033C1 44.7358 1.36752 43.4023 2.10125 42.2029C2.83236 41.0022 3.81875 40.0579 5.0566 39.3701C6.29302 38.6836 7.63546 38.3403 9.0837 38.3403C10.3291 38.3403 11.466 38.6058 12.4907 39.1378C13.518 39.6687 14.3346 40.4113 14.9381 41.3633H14.9943V38.7244H16.9186V53.7624H14.9943V51.1236H14.938Z" fill="black" stroke="black" stroke-width="0.4" stroke-miterlimit="10"/>
<path d="M27.0353 40.0715C25.6062 40.0715 24.4641 40.5564 23.6117 41.5289C22.7606 42.4998 22.3345 43.7377 22.3345 45.2396V53.7622H20.4102V38.7241H22.3345V40.6484H22.3881C22.8653 39.916 23.5122 39.3481 24.329 38.9449C25.1431 38.5416 26.0375 38.3401 27.0086 38.3401C28.365 38.3401 29.5415 38.6336 30.5407 39.2192C31.5385 39.8062 32.3041 40.6306 32.8362 41.6935C33.3671 42.7578 33.6337 43.9852 33.6337 45.3775V53.7622H31.7094V45.3775C31.7094 44.2775 31.5077 43.3295 31.1045 42.5319C30.6999 41.7344 30.1423 41.1256 29.4265 40.7033C28.7133 40.2821 27.9145 40.0715 27.0353 40.0715Z" fill="black" stroke="black" stroke-width="0.4" stroke-miterlimit="10"/>
<path d="M50.5669 46.2568C50.5669 45.1582 50.3001 44.1309 49.7707 43.1777C49.2373 42.2259 48.5074 41.4692 47.5836 40.9103C46.6585 40.3514 45.6364 40.072 44.5198 40.072C43.365 40.072 42.32 40.3425 41.3847 40.8822C40.4494 41.4232 39.7157 42.1659 39.1861 43.1102C38.6527 44.0532 38.3873 45.1123 38.3873 46.2837C38.3873 47.4206 38.6527 48.453 39.1861 49.3781C39.7157 50.3032 40.4494 51.0357 41.3847 51.5767C42.32 52.1177 43.3741 52.3883 44.5467 52.3883C45.6453 52.3883 46.6535 52.1127 47.5709 51.5627C48.4858 51.0127 49.2157 50.2714 49.7542 49.3361C50.2964 48.4019 50.5669 47.3746 50.5669 46.2568ZM50.401 51.1235C49.7592 52.0767 48.9221 52.813 47.8859 53.3362C46.8498 53.8581 45.7358 54.1197 44.5466 54.1197C43.06 54.1197 41.6998 53.7713 40.4632 53.0759C39.2255 52.3792 38.2506 51.4298 37.5348 50.2303C36.8201 49.0296 36.4629 47.6871 36.4629 46.2032C36.4629 44.7357 36.8304 43.4023 37.5641 42.2028C38.2952 41.0021 39.2816 40.0579 40.5195 39.37C41.7559 38.6835 43.0984 38.3403 44.5466 38.3403C45.7179 38.3403 46.8281 38.6006 47.8732 39.1225C48.917 39.6457 49.7591 40.373 50.4009 41.3084H50.457V33.4187H52.38V53.7625H50.457V51.1237L50.401 51.1235Z" fill="black" stroke="black" stroke-width="0.4" stroke-miterlimit="10"/>
<path d="M69.4807 46.2569C69.4807 45.1582 69.214 44.131 68.6819 43.1778C68.151 42.2259 67.4224 41.4693 66.4973 40.9104C65.5722 40.3514 64.5501 40.072 63.431 40.072C62.2941 40.072 61.2605 40.3426 60.3251 40.8823C59.3898 41.4233 58.6523 42.166 58.1125 43.1102C57.5715 44.0533 57.3009 45.1124 57.3009 46.2837C57.3009 47.4207 57.5663 48.4569 58.0997 49.391C58.6292 50.3262 59.368 51.0587 60.3124 51.5908C61.2566 52.1229 62.3055 52.3883 63.4591 52.3883C64.559 52.3883 65.567 52.1127 66.482 51.5628C67.3995 51.0128 68.1294 50.2714 68.6678 49.3361C69.2103 48.4019 69.4807 47.3747 69.4807 46.2569ZM69.3149 51.1236C68.6934 52.0577 67.8678 52.7914 66.8406 53.3223C65.8134 53.8544 64.6879 54.1198 63.4591 54.1198C61.9738 54.1198 60.6136 53.7714 59.3771 53.076C58.1393 52.3793 57.1644 51.4299 56.4486 50.2304C55.7353 49.0296 55.3767 47.6872 55.3767 46.2033C55.3767 44.7358 55.7442 43.4024 56.478 42.2029C57.2091 41.0022 58.1955 40.0579 59.4333 39.3701C60.6697 38.6836 62.0122 38.3403 63.4592 38.3403C64.7059 38.3403 65.8429 38.6058 66.8675 39.1378C67.8947 39.6687 68.7113 40.4113 69.3149 41.3633H69.371V38.7244H71.2953V53.7624H69.371V51.1236H69.3149Z" fill="black" stroke="black" stroke-width="0.4" stroke-miterlimit="10"/>
<path d="M76.7113 38.7245V40.8951H76.7649C77.1145 40.0899 77.6122 39.4812 78.2642 39.0677C78.915 38.6555 79.8248 38.4131 81 38.3391V40.3731H80.9733C79.6155 40.502 78.5654 40.9741 77.8253 41.7895C77.0826 42.6049 76.7114 43.6359 76.7114 44.8826V53.7625H74.7871V38.7245H76.7113Z" fill="black" stroke="black" stroke-width="0.4" stroke-miterlimit="10"/>
<path d="M41.7955 1C39.6368 1 38.5412 1.98627 37.4755 3.58089C36.4097 5.17552 29.3762 16.5408 28.3023 18.0864C28.3023 18.0864 26.7446 17.1836 24.9873 16.8581C22.4621 16.3906 20.1747 16.6217 20.1747 16.6217C20.1747 16.6217 21.0823 18.6154 23.1324 21.1619C24.8684 23.3182 27.5605 25.4492 30.384 26.9409C34.2131 28.9639 38.807 30.409 44.6105 30.4121C49.2569 30.4146 52.9323 28.77 54.1438 28.0875C56.7214 26.6353 57.0798 25.6718 57.0798 25.6718C57.0798 25.6718 52.0709 28.4026 47.4418 28.5654C42.3575 28.7441 40.1741 27.7988 37.8254 26.4257C35.7102 25.189 34.0938 22.9436 32.521 21.2189C31.6031 20.2124 30.0586 19.1199 30.0586 19.1199C30.0586 19.1199 33.9352 17.7508 35.3738 16.9287C36.8925 16.0609 38.29 14.7614 39.1361 13.5465C40.0608 12.2187 40.4703 10.5797 41.9582 10.5797C43.4589 10.5797 43.9199 11.9768 44.9938 13.2622C46.2423 14.7565 47.702 15.6215 49.5082 16.3754C51.3681 17.1518 54.4406 17.8085 54.4406 17.8085C54.4406 17.8085 52.2925 18.4378 49.8968 19.6261C46.4971 21.3125 45.623 22.6096 41.3238 22.6181C39.6479 22.6215 38.0696 22.187 36.9469 21.6989C35.8241 21.2107 34.3922 20.446 34.3922 20.446C34.3922 20.446 36.2987 22.6616 37.3157 23.4371C39.1707 24.8519 41.4324 26.2013 46.0751 26.1816C49.8989 26.1654 53.9809 24.6678 55.8541 23.448C59.7103 20.9368 61.2968 17.8995 61.8257 16.4432C61.8257 16.4432 59.8135 16.5599 58.5118 16.7984C57.1294 17.0518 55.4818 17.4933 55.4818 17.4933C55.4818 17.4933 47.0284 5.01182 46.037 3.5754C44.9737 2.0351 43.7481 1 41.7955 1Z" fill="black"/>
</svg>
